<svg viewBox="0 0 805 915.762" xmlns="http://www.w3.org/2000/svg"><path d="M42.5 9.94v800m40-800v800m40-800v800m40-800v800m80-800v800m40-800v800m40-800v800m40-800v800m80-800v800m40-800v800m40-800v800m40-800v800m80-800v800m40-800v800m40-800v800m40-800v800m-760-760h800m-800 40h800m-800 40h800m-800 40h800m-800 80h800m-800 40h800m-800 40h800m-800 40h800m-800 80h800m-800 40h800m-800 40h800m-800 40h800m-800 80h800m-800 40h800m-800 40h800m-800 40h800" fill="none" stroke="#000" stroke-width="2"/><path d="M202.5 9.94v800m200-800v800m200-800v800m-600-600h800m-800 200h800m-800 200h800m-800-600h800v800H2.5z" fill="none" stroke="#000" stroke-width="5"/><path d="M7.17 714.49c37.439 33.686 74.879 57.754 112.32 72.204s74.879 19.245 112.32 14.441 74.879-19.264 112.32-43.323 74.879-57.773 112.32-101.09 74.879-96.282 112.32-158.85 74.879-134.79 112.32-216.61 74.879-173.3 112.32-274.38" fill="none" stroke="navy" stroke-linecap="round" stroke-linejoin="round" stroke-width="13.775"/><path d="M179.68 913.77c-6.32-3.854-6.438-7.513-.321-10.047 2.554-1.058 3.266-.944 5.601.892 3.628 2.854 6.017 2.648 9.483-.818 4.502-4.502 3.94-6.103-1.898-5.412-8.9 1.054-14.18-4.24-14.18-14.218 0-5.447 3.87-25.327 5.294-27.197 1.087-1.428 8.306-1.707 9.142-.354.305.492-.556 6.255-1.914 12.806-1.94 9.364-2.255 12.679-1.475 15.505 1.14 4.124 3.154 5.299 6.05 3.527 3.621-2.215 5.762-7.113 8.36-19.126 1.405-6.499 2.803-12.219 3.108-12.712s2.552-.896 4.995-.896c3.226 0 4.44.4 4.44 1.46 0 2.25-8.715 42.707-9.823 45.596-4.014 10.475-18.195 16.278-26.863 10.993zm128.45-16.615c-3.607-1.957-5.766-6.33-5.746-11.635.038-9.912 9.115-18.133 20.02-18.133 4.222 0 5.963-.38 5.963-1.298 0-2.385-3.877-3.528-9.556-2.818l-5.444.68v-3.64c0-3.047.448-3.813 2.75-4.701 1.513-.583 5.84-.892 9.617-.686 6.256.341 7.124.662 9.75 3.601 3.526 3.946 3.64 6.74.803 19.832-1.49 6.878-1.774 9.909-1 10.683 1.18 1.18 1.437 5.588.473 8.099-.744 1.94-4.99 2.01-8.371.139-2.107-1.167-2.887-1.161-5.2.035-3.514 1.817-10.566 1.738-14.06-.158zm14.078-9.035c7.237-5.07 3.363-14.11-4.824-11.255-3.548 1.236-5.017 3.502-5.017 7.74 0 4.816 5.287 6.704 9.841 3.514zm198.24 9.674c-.778-.492-3.806-.648-6.729-.347-4 .413-5.441.206-5.83-.839-.284-.763 2.071-13.538 5.234-28.388l5.75-27 4.891-.31 4.891-.311-.595 4.81c-.327 2.646-.914 6.35-1.305 8.229-.642 3.092-.528 3.344 1.199 2.64 1.05-.429 3.708-.979 5.908-1.223 8.176-.908 13.5 5.61 13.5 16.529 0 14.858-9.858 27.169-21.718 27.12-2.08-.007-4.418-.417-5.196-.91zm11.425-11.384c5.548-5.548 7.242-18.204 2.865-21.405-2.315-1.692-2.527-1.66-6.39.965-6.599 4.484-9.815 16.96-5.58 21.643 2.683 2.969 5.276 2.626 9.105-1.203zm149.39 10.04c-6.558-4.38-8.428-12.215-5.372-22.504 4.367-14.706 21.36-23.869 31.483-16.976 5.463 3.72 5.99 5.48 2.491 8.313-3.648 2.952-4.942 3.021-8.227.437-3.195-2.513-4.926-2.508-9.08.025-6.744 4.111-9.523 16.736-4.738 21.52 2.934 2.935 5.034 3.071 9.045.587 2.66-1.647 3.313-1.7 5.75-.47 4.173 2.108 3.525 4.891-1.945 8.36-6.125 3.884-14.211 4.18-19.406.708zm-340.88.02c.008-.687 3.383-5.216 7.5-10.065s7.486-9.467 7.486-10.264-1.576-5.357-3.502-10.134c-1.961-4.863-3.122-9.063-2.64-9.546.475-.474 3.003-.722 5.619-.551 4.745.31 4.761.323 6.71 5.56 1.074 2.888 2.316 5.25 2.761 5.25s2.923-2.475 5.507-5.5c4.516-5.285 4.891-5.5 9.622-5.5 3.036 0 4.923.44 4.923 1.147 0 .631-3.375 5.094-7.5 9.917s-7.5 9.442-7.5 10.264 1.575 5.174 3.5 9.672c4.738 11.069 4.719 11.165-2.144 10.8l-5.644-.3-1.99-5.25c-1.095-2.888-2.493-5.225-3.106-5.194s-3.05 2.505-5.414 5.5c-4.168 5.28-4.445 5.444-9.25 5.444-3.303 0-4.948-.416-4.938-1.25zm125.51.083c-.264-.733-.602-4.933-.75-9.333l-.27-8-8.75-.289c-7.865-.26-8.75-.483-8.75-2.21s.885-1.952 8.75-2.212l8.75-.289.5-9c.395-7.111.815-9 2-9s1.605 1.889 2 9l.5 9 8.75.29c7.865.259 8.75.482 8.75 2.21s-.885 1.952-8.75 2.211l-8.75.29-.5 8.92c-.33 5.87-.928 9.062-1.75 9.333-.687.227-1.466-.187-1.73-.92zm81.494-.083c.008-.687 3.383-5.216 7.5-10.065s7.486-9.467 7.486-10.264-1.576-5.357-3.502-10.134c-1.961-4.863-3.122-9.063-2.64-9.546.475-.474 3.003-.722 5.619-.551 4.745.31 4.761.323 6.71 5.56 1.074 2.888 2.316 5.25 2.761 5.25s2.923-2.475 5.507-5.5c4.516-5.285 4.891-5.5 9.622-5.5 3.036 0 4.923.44 4.923 1.147 0 .631-3.375 5.094-7.5 9.917s-7.5 9.442-7.5 10.264 1.575 5.174 3.5 9.672c4.738 11.069 4.719 11.165-2.144 10.8l-5.644-.3-1.99-5.25c-1.095-2.888-2.493-5.225-3.106-5.194s-3.05 2.505-5.414 5.5c-4.168 5.28-4.445 5.444-9.25 5.444-3.303 0-4.948-.416-4.938-1.25zm85.506.083c-.264-.733-.602-4.933-.75-9.333l-.27-8-8.75-.289c-7.865-.26-8.75-.483-8.75-2.21s.885-1.952 8.75-2.212l8.75-.289.5-9c.395-7.111.815-9 2-9s1.605 1.889 2 9l.5 9 8.75.29c7.865.259 8.75.482 8.75 2.21s-.885 1.952-8.75 2.211l-8.75.29-.5 8.92c-.33 5.87-.928 9.062-1.75 9.333-.687.227-1.466-.187-1.73-.92zm-392.52-11.833c0-1.996.441-2.035 20.25-1.77 17.213.23 20.25.495 20.25 1.77s-3.037 1.541-20.25 1.771c-19.809.265-20.25.226-20.25-1.77zm0-15c0-1.996.441-2.035 20.25-1.77 17.213.23 20.25.495 20.25 1.77s-3.037 1.541-20.25 1.771c-19.809.265-20.25.226-20.25-1.77zm155-9.116c0-.653 4.05-5.374 9-10.49 7.158-7.4 9-9.902 9-12.226 0-1.608-.694-3.499-1.542-4.202-1.28-1.063-2.056-.9-4.568.958-1.665 1.23-3.671 1.99-4.459 1.688-4.353-1.67 2.461-8.612 8.455-8.612 4.602 0 6.888 1.593 7.894 5.5 1.322 5.138.292 8.024-5.27 14.767-2.961 3.59-5.112 6.798-4.78 7.13s2.133.603 4.003.603c3.119 0 3.374.227 3.083 2.75l-.316 2.75-10.25.285c-7.403.206-10.25-.045-10.25-.902z"/></svg>